<svg t="1689503085072" class="icon" viewBox="0 0 1024 1024" version="1.1"
    xmlns="http://www.w3.org/2000/svg" p-id="3196" width="32" height="32">
    <path
        d="M508.8 44.8c-256 0-464 208-464 464s208 464 464 464 464-208 464-464-208-464-464-464z m0 880c-230.4 0-416-185.6-416-416s185.6-416 416-416 416 185.6 416 416-185.6 416-416 416z"
        p-id="3197"></path>
    <path
        d="M521.6 652.8c12.8 0 22.4-9.6 22.4-22.4V201.6c0-12.8-9.6-22.4-22.4-22.4-12.8 0-22.4 9.6-22.4 22.4v428.8c-3.2 9.6 9.6 22.4 22.4 22.4zM486.4 748.8a1.1 1.1 0 1 0 70.4 0 1.1 1.1 0 1 0-70.4 0z"
        p-id="3198"></path>
</svg>