<svg t="1689503587264" class="icon" viewBox="0 0 1024 1024" version="1.1"
    xmlns="http://www.w3.org/2000/svg" p-id="10817" width="32" height="32">
    <path
        d="M833.251556 56.888889c70.997333 0 129.024 58.709333 133.575111 132.892444L967.111111 199.111111v398.222222c0 13.937778-9.443556 25.6-21.959111 27.989334l-4.835556 0.455111H244.280889c-73.955556 0-133.859556 63.715556-133.859556 142.222222 0 75.377778 55.239111 137.102222 125.041778 141.937778l8.817778 0.284444H940.373333c14.791111 0 26.794667 12.743111 26.794667 28.444445 0 13.937778-9.443556 25.6-21.959111 27.989333l-4.835556 0.455111H244.280889C140.743111 967.111111 56.888889 877.966222 56.888889 768v-568.888889c0-75.377778 55.182222-137.102222 125.041778-141.937778L190.748444 56.888889h642.503112z m26.737777 682.666667c14.791111 0 26.794667 12.743111 26.794667 28.444444 0 13.937778-9.443556 25.6-21.959111 27.989333l-4.778667 0.455111H271.075556c-14.791111 0-26.737778-12.743111-26.737778-28.444444 0-13.937778 9.443556-25.6 21.902222-27.989333L271.075556 739.555556h588.970666z m-26.737777-625.777778H190.748444c-41.756444 0-76.060444 33.848889-79.928888 77.141333L110.364444 199.111111v429.511111a182.158222 182.158222 0 0 1 123.562667-59.448889L244.280889 568.888889h669.240889V199.111111c0-44.373333-31.857778-80.782222-72.533334-84.935111L833.251556 113.777778z m-122.140445 28.444444L565.532444 546.872889 512 341.333333l-241.607111-50.289777L711.111111 142.222222z m-74.695111 73.216L443.505778 280.576l105.415111 21.959111 23.552 90.510222 63.943111-177.607111z"
        p-id="10818"></path>
</svg>