<svg t="1697632370807" class="icon" viewBox="0 0 1024 1024" version="1.1"
    xmlns="http://www.w3.org/2000/svg" p-id="4128" width="32" height="32">
    <path
        d="M512 433.230769v177.230769c0 55.138462-43.323077 98.461538-98.461538 98.461539S315.076923 665.6 315.076923 610.461538V433.230769h39.384615v177.230769c0 31.507692 27.569231 59.076923 59.076924 59.076924s59.076923-27.569231 59.076923-59.076924V433.230769h39.384615z"
        fill="" p-id="4129"></path>
    <path
        d="M472.615385 590.769231v-177.230769C472.615385 358.4 515.938462 315.076923 571.076923 315.076923S669.538462 358.4 669.538462 413.538462V590.769231h-39.384616v-177.230769c0-31.507692-27.569231-59.076923-59.076923-59.076924s-59.076923 27.569231-59.076923 59.076924V590.769231h-39.384615zM334.769231 354.461538l98.461538 78.769231H236.307692zM551.384615 590.769231h196.923077l-98.461538 78.769231z"
        fill="" p-id="4130"></path>
    <path
        d="M512 39.384615c259.938462 0 472.615385 212.676923 472.615385 472.615385s-212.676923 472.615385-472.615385 472.615385S39.384615 771.938462 39.384615 512 252.061538 39.384615 512 39.384615m0-39.384615C228.430769 0 0 228.430769 0 512s228.430769 512 512 512 512-228.430769 512-512S795.569231 0 512 0z"
        fill="" p-id="4131"></path>
</svg>