<svg t="1689437756731" class="icon" viewBox="0 0 1024 1024" version="1.1"
    xmlns="http://www.w3.org/2000/svg" p-id="33683" width="32" height="32">
    <path
        d="M422.5536 27.0336zM431.8208 25.6a25.6 25.6 0 0 1 4.096 50.8928c-1.024 0.2048-2.56 0.4096-7.5264 1.024H165.4272c-48.64 0-88.6272 42.0864-88.6272 94.6176v680.448c0 52.5312 39.9872 94.6176 88.6272 94.6176H858.624c48.64 0 88.6272-42.0864 88.6272-94.6176V451.584a25.6 25.6 0 0 1 51.2 0v400.9984c0 80.2304-62.3104 145.8176-139.8272 145.8176H165.376C87.9104 998.4 25.6 932.864 25.6 852.5824V172.1344C25.6 91.904 87.9104 26.3168 165.4272 26.3168l259.1744 0.1536A30.4128 30.4128 0 0 1 431.8208 25.6z m531.456 68.5568a24.832 24.832 0 0 1 18.432 29.3376 25.9072 25.9072 0 0 1-6.144 12.8L814.4896 363.008a25.6 25.6 0 0 1-41.7792-29.696l128.256-180.5312C634.5216 204.3904 409.088 423.6288 387.2768 688.128a25.6 25.6 0 0 1-51.0464-4.1984c22.528-273.7152 242.3808-500.8384 510.4128-571.2384l-156.0576-46.6432a25.6 25.6 0 0 1 14.6944-49.0496l257.9968 77.1584zM437.248 76.0832l-0.5632 0.2048a2.816 2.816 0 0 0 0.5632-0.2048z"
        p-id="33684"></path>
</svg>