<svg t="1689430067245" class="icon" viewBox="0 0 1024 1024" version="1.1"
    xmlns="http://www.w3.org/2000/svg" p-id="23270" width="32" height="32">
    <path
        d="M277.333339 1023.999973a21.266666 21.266666 0 0 1-15.086666-6.246666l-170.666662-170.666662a21.333333 21.333333 0 0 1 0-30.173333l170.666662-170.666662a21.333333 21.333333 0 0 1 30.173333 30.173332L158.166676 810.666646H767.999993c70.579998 0 127.999997-57.419999 127.999997-127.999997s-57.419999-127.999997-127.999997-127.999997H256.000007a170.666662 170.666662 0 1 1 0-341.333324h609.833317l-134.25333-134.246663a21.333333 21.333333 0 0 1 30.173333-30.173333l170.666662 170.666662a21.333333 21.333333 0 0 1 0 30.173333l-170.666662 170.666662a21.333333 21.333333 0 0 1-30.173333-30.173332L865.833324 255.999993H256.000007c-70.579998 0-127.999997 57.419999-127.999997 127.999997s57.419999 127.999997 127.999997 127.999997h511.999986a170.666662 170.666662 0 1 1 0 341.333324H158.166676l134.25333 134.246663A21.333333 21.333333 0 0 1 277.333339 1023.999973z"
        p-id="23271"></path>
</svg>