<svg
    t="1595917343956"
    class="icon"
    viewBox="0 0 1024 1024"
    version="1.1"
    xmlns="http://www.w3.org/2000/svg"
    p-id="1540"
>
    <path
        d="M416 416 64.064 416C28.448 416 0 444.64 0 479.936L0 544.064C0 579.264 28.672 608 64.064 608L416 608 416 959.936C416 995.552 444.64 1024 479.936 1024L544.064 1024C579.264 1024 608 995.328 608 959.936L608 608 959.936 608C995.552 608 1024 579.36 1024 544.064L1024 479.936C1024 444.736 995.328 416 959.936 416L608 416 608 64.064C608 28.448 579.36 0 544.064 0L479.936 0C444.736 0 416 28.672 416 64.064L416 416Z"
        p-id="1541"
    ></path>
</svg>